<svg xmlns="http://www.w3.org/2000/svg" width="512" height="512" fill="#fff" version="1.1" xml:space="preserve"><g><title>Layer 1</title><g id="svg_1"><g id="svg_2"><g id="svg_3"><path id="svg_4" d="m482.197,374.266l-78.717,-45.448c-15.89,-9.174 -35.829,2.308 -35.829,20.686l0,27.587l-216.593,0c-63.597,-0.001 -115.337,-51.74 -115.337,-115.338c0,-9.864 -7.997,-17.86 -17.86,-17.86c-9.864,0 -17.86,7.997 -17.86,17.86c0,83.294 67.765,151.058 151.058,151.058l216.591,0l0,27.587c0,18.347 19.913,29.876 35.829,20.686l78.717,-45.447c15.89,-9.172 15.917,-32.181 0.001,-41.371z"/><path id="svg_5" d="m360.942,99.189l-216.593,0l0,-27.588c0,-18.347 -19.913,-29.876 -35.829,-20.686l-78.717,45.447c-15.889,9.173 -15.917,32.182 0,41.372l78.717,45.448c15.89,9.174 35.829,-2.309 35.829,-20.686l0,-27.587l216.593,0c63.598,0 115.337,51.739 115.337,115.337c0,9.864 7.997,17.86 17.86,17.86c9.864,0 17.86,-7.997 17.86,-17.86c0.001,-83.293 -67.764,-151.057 -151.057,-151.057z"/></g></g></g><g id="svg_24"><path id="svg_21" fill="#fff" stroke="#000" stroke-width="0" d="m118,511.5c-65.19337,0 -118,-52.80663 -118,-118c0,-65.19337 52.80663,-118 118,-118c65.19337,0 118,52.80663 118,118c0,65.19337 -52.80663,118 -118,118z" opacity="undefined"/><text id="svg_23" x="54.641" y="470" fill="#000" stroke="#000" stroke-width="0" font-family="Noto Sans JP" font-size="250" font-weight="bold" text-anchor="start" xml:space="preserve">1</text></g></g></svg>