<svg xmlns="http://www.w3.org/2000/svg" xmlns:xlink="http://www.w3.org/1999/xlink" width="100%" height="100%" version="1.1" viewBox="0 0 28 64" xml:space="preserve" style="fill-rule:evenodd;clip-rule:evenodd;stroke-linejoin:round;stroke-miterlimit:2"><g><path d="M39,12.24C39,11.004 37.996,10 36.76,10L13.24,10C12.004,10 11,11.004 11,12.24L11,71.76C11,72.996 12.004,74 13.24,74L36.76,74C37.996,74 39,72.996 39,71.76L39,12.24Z" style="fill:#6c6c6c;fill-opacity:.43" transform="matrix(1,0,0,1,-11,-10)"/><g transform="matrix(1,0,0,1,-11,-10) matrix(0.714286,0,0,1,7.14286,0)"><rect width="14" height="2" x="18" y="41" style="fill:#e7e7e7;fill-opacity:.77"/></g><g transform="matrix(1,0,0,1,-11,-10) matrix(0.714286,0,0,1,7.14286,-5)"><rect width="14" height="2" x="18" y="41" style="fill:#e7e7e7;fill-opacity:.77"/></g><g transform="matrix(1,0,0,1,-11,-10) matrix(0.714286,0,0,1,7.14286,5)"><rect width="14" height="2" x="18" y="41" style="fill:#e7e7e7;fill-opacity:.77"/></g><g><path d="M25,26L32,36L18,36L25,26Z" style="fill:#e7e7e7;fill-opacity:.77" transform="matrix(1,0,0,1,-11,-10) matrix(0.571429,0,0,0.6,10.7143,10.4)"/></g><g><path d="M25,26L32,36L18,36L25,26Z" style="fill:#e7e7e7;fill-opacity:.77" transform="matrix(1,0,0,1,-11,-10) matrix(0.571429,0,0,-0.6,10.7143,73.6)"/></g></g></svg>